<?xml version="1.0" encoding="utf-8"?>
<!-- Generator: Adobe Illustrator 22.0.0, SVG Export Plug-In . SVG Version: 6.00 Build 0)  -->
<svg version="1.1" id="Layer_1" xmlns="http://www.w3.org/2000/svg" xmlns:xlink="http://www.w3.org/1999/xlink" x="0px" y="0px"
	 viewBox="0 0 500 150" style="enable-background:new 0 0 500 150;" xml:space="preserve">
<style type="text/css">
	.st0{fill:#FFFFFF;}
	.st1{fill:#A6A6A6;}
	.st2{fill:url(#SVGID_1_);}
</style>
<g transform="scale(4.00216 4.0011)">
	<path class="st0" d="M119.4,31.9c0,1.8-1.5,3.3-3.3,3.3c0,0,0,0,0,0H8.5c-1.8,0-3.3-1.5-3.3-3.3V6c0-1.8,1.5-3.3,3.3-3.3h107.6
		c1.8,0,3.3,1.5,3.3,3.3c0,0,0,0,0,0L119.4,31.9L119.4,31.9z"/>
	<path class="st1" d="M116.1,35.9H8.5c-2.2,0-4.1-1.8-4.1-4V6c0-2.2,1.8-4,4.1-4h107.6c2.2,0,4.1,1.8,4.1,4v26
		C120.2,34.1,118.4,35.9,116.1,35.9L116.1,35.9z"/>
	<path d="M119.4,31.9c0,1.8-1.5,3.3-3.3,3.3c0,0,0,0,0,0H8.5c-1.8,0-3.3-1.5-3.3-3.3V6c0-1.8,1.5-3.3,3.3-3.3h107.6
		c1.8,0,3.3,1.5,3.3,3.3c0,0,0,0,0,0L119.4,31.9L119.4,31.9z"/>
	<path class="st0" d="M30.3,18.8c0-2.7,2.3-4.1,2.4-4.1c-1.3-1.9-3.3-2.1-4-2.1c-1.7-0.2-3.3,1-4.2,1c-0.9,0-2.2-1-3.6-1
		c-1.8,0-3.6,1.1-4.5,2.7c-1.9,3.3-0.5,8.2,1.4,10.9c0.9,1.3,2,2.8,3.4,2.7c1.4-0.1,1.9-0.9,3.6-0.9c1.7,0,2.2,0.9,3.6,0.8
		c1.5,0,2.4-1.3,3.3-2.7c1.1-1.5,1.5-3,1.5-3.1C33.2,23.1,30.3,22,30.3,18.8L30.3,18.8z M27.5,10.7c0.7-0.9,1.3-2.2,1.1-3.5
		c-1.1,0-2.4,0.7-3.2,1.7c-0.7,0.8-1.3,2.1-1.1,3.3C25.5,12.3,26.7,11.6,27.5,10.7z"/>
	
		<linearGradient id="SVGID_1_" gradientUnits="userSpaceOnUse" x1="-43.8818" y1="45.2739" x2="-43.8818" y2="65.9523" gradientTransform="matrix(23.7359 0 0 -23.7231 1130.9006 1110.0591)">
		<stop  offset="0" style="stop-color:#1A1A1A;stop-opacity:0.1"/>
		<stop  offset="0.123" style="stop-color:#212121;stop-opacity:0.151"/>
		<stop  offset="0.308" style="stop-color:#353535;stop-opacity:0.227"/>
		<stop  offset="0.532" style="stop-color:#575757;stop-opacity:0.318"/>
		<stop  offset="0.783" style="stop-color:#858585;stop-opacity:0.421"/>
		<stop  offset="1" style="stop-color:#B3B3B3;stop-opacity:0.51"/>
	</linearGradient>
	<path class="st2" d="M116.1,1.9H58.5l22.6,34h35.1c2.2,0,4.1-1.8,4.1-4V6C120.2,3.7,118.4,1.9,116.1,1.9z"/>
	<g>
		<path class="st0" d="M50.5,28.7h-1.9l-1.1-3.3h-3.7l-1,3.3h-1.9l3.7-11.3h2.3L50.5,28.7L50.5,28.7z M47.1,24l-1-3
			c-0.1-0.3-0.3-1-0.6-2.1h0c-0.1,0.5-0.3,1.2-0.5,2.1l-0.9,3H47.1z M59.9,24.5c0,1.4-0.4,2.5-1.1,3.3c-0.7,0.7-1.5,1.1-2.5,1.1
			c-1.1,0-1.9-0.4-2.4-1.2V32H52v-8.8c0-0.9,0-1.8-0.1-2.7h1.6l0.1,1.3h0c0.6-1,1.5-1.5,2.8-1.5c1,0,1.8,0.4,2.4,1.1
			C59.6,22.3,59.9,23.3,59.9,24.5L59.9,24.5z M58,24.6c0-0.8-0.2-1.4-0.5-2c-0.4-0.5-0.9-0.8-1.6-0.8c-0.5,0-0.9,0.1-1.2,0.4
			c-0.4,0.3-0.6,0.7-0.7,1.2c-0.1,0.2-0.1,0.4-0.1,0.6v1.4c0,0.6,0.2,1.1,0.6,1.5c0.4,0.4,0.8,0.6,1.4,0.6c0.7,0,1.2-0.3,1.6-0.8
			C57.8,26.2,58,25.5,58,24.6z M69.4,24.5c0,1.4-0.4,2.5-1.1,3.3c-0.7,0.7-1.5,1.1-2.5,1.1c-1.1,0-1.9-0.4-2.4-1.2V32h-1.8v-8.8
			c0-0.9,0-1.8-0.1-2.7h1.6l0.1,1.3h0c0.6-1,1.5-1.5,2.8-1.5c1,0,1.8,0.4,2.4,1.1C69,22.3,69.4,23.3,69.4,24.5L69.4,24.5z
			 M67.5,24.6c0-0.8-0.2-1.4-0.5-2c-0.4-0.5-0.9-0.8-1.6-0.8c-0.5,0-0.9,0.1-1.2,0.4c-0.4,0.3-0.6,0.7-0.7,1.2
			c-0.1,0.2-0.1,0.4-0.1,0.6v1.4c0,0.6,0.2,1.1,0.5,1.5c0.4,0.4,0.8,0.6,1.4,0.6c0.7,0,1.2-0.3,1.6-0.8
			C67.3,26.2,67.5,25.5,67.5,24.6z M80,25.5c0,1-0.3,1.7-1,2.4c-0.7,0.7-1.8,1-3.1,1c-1.2,0-2.2-0.2-3-0.7l0.4-1.5
			c0.8,0.5,1.7,0.7,2.6,0.7c0.7,0,1.2-0.2,1.6-0.5c0.4-0.3,0.6-0.7,0.6-1.2c0-0.5-0.2-0.8-0.5-1.2c-0.3-0.3-0.8-0.6-1.6-0.9
			c-2-0.7-3-1.8-3-3.2c0-0.9,0.4-1.7,1.1-2.3c0.7-0.6,1.6-0.9,2.8-0.9c1,0,1.9,0.2,2.6,0.5l-0.5,1.5c-0.6-0.3-1.4-0.5-2.2-0.5
			c-0.6,0-1.2,0.2-1.5,0.5c-0.3,0.3-0.5,0.6-0.5,1c0,0.4,0.2,0.8,0.5,1.1c0.3,0.3,0.9,0.6,1.7,0.9c1,0.4,1.7,0.9,2.2,1.4
			C79.7,24.1,80,24.8,80,25.5L80,25.5z M86,21.9h-2v4c0,1,0.4,1.5,1.1,1.5c0.3,0,0.6,0,0.8-0.1l0.1,1.4c-0.4,0.1-0.8,0.2-1.4,0.2
			c-0.7,0-1.3-0.2-1.7-0.7c-0.4-0.4-0.6-1.2-0.6-2.2v-4.1H81v-1.4h1.2v-1.5l1.8-0.5v2h2L86,21.9L86,21.9z M95.1,24.6
			c0,1.3-0.4,2.3-1.1,3.1c-0.8,0.8-1.8,1.2-3,1.2c-1.2,0-2.2-0.4-2.9-1.2c-0.7-0.8-1.1-1.8-1.1-3c0-1.3,0.4-2.3,1.1-3.1
			c0.7-0.8,1.7-1.2,3-1.2c1.2,0,2.2,0.4,2.9,1.2C94.8,22.4,95.1,23.4,95.1,24.6L95.1,24.6z M93.2,24.6c0-0.7-0.2-1.4-0.5-1.9
			c-0.4-0.6-0.9-1-1.6-1c-0.7,0-1.3,0.3-1.7,1c-0.3,0.5-0.5,1.2-0.5,2c0,0.7,0.2,1.4,0.5,1.9c0.4,0.6,0.9,1,1.7,1
			c0.7,0,1.2-0.3,1.6-1C93,26,93.2,25.4,93.2,24.6L93.2,24.6z M101,22.2c-0.2,0-0.4-0.1-0.6-0.1c-0.6,0-1.1,0.2-1.5,0.7
			c-0.3,0.4-0.5,1-0.5,1.6v4.3h-1.8v-5.6c0-0.9,0-1.7-0.1-2.6h1.6l0.1,1.6h0.1c0.2-0.5,0.5-1,0.9-1.3c0.4-0.3,0.8-0.4,1.3-0.4
			c0.2,0,0.3,0,0.5,0L101,22.2L101,22.2z M109.2,24.3c0,0.3,0,0.6-0.1,0.8h-5.5c0,0.8,0.3,1.4,0.8,1.8c0.5,0.4,1.1,0.6,1.8,0.6
			c0.8,0,1.6-0.1,2.2-0.4l0.3,1.3c-0.8,0.3-1.7,0.5-2.8,0.5c-1.3,0-2.3-0.4-3-1.1c-0.7-0.7-1.1-1.7-1.1-3c0-1.2,0.3-2.3,1-3.1
			c0.7-0.9,1.7-1.3,2.9-1.3c1.2,0,2.1,0.4,2.7,1.3C109,22.4,109.2,23.2,109.2,24.3L109.2,24.3z M107.5,23.8c0-0.5-0.1-1-0.4-1.4
			c-0.3-0.5-0.8-0.8-1.5-0.8c-0.6,0-1.1,0.2-1.5,0.7c-0.3,0.4-0.5,0.9-0.5,1.4L107.5,23.8L107.5,23.8z"/>
	</g>
	<g>
		<path class="st0" d="M43.2,13.4c-0.5,0-0.9,0-1.3-0.1V7.9c0.5-0.1,1-0.1,1.5-0.1c2.1,0,3.1,1,3.1,2.7
			C46.5,12.4,45.4,13.4,43.2,13.4z M43.5,8.5c-0.3,0-0.5,0-0.7,0.1v4.2c0.1,0,0.3,0,0.6,0c1.4,0,2.2-0.8,2.2-2.2
			C45.6,9.2,44.9,8.5,43.5,8.5z M49.5,13.4c-1.2,0-1.9-0.9-1.9-2.1c0-1.2,0.8-2.1,2-2.1c1.2,0,1.9,0.8,1.9,2.1
			C51.5,12.6,50.7,13.4,49.5,13.4z M49.6,9.9c-0.6,0-1.1,0.6-1.1,1.4c0,0.8,0.4,1.4,1.1,1.4c0.6,0,1.1-0.6,1.1-1.4
			C50.6,10.5,50.2,9.9,49.6,9.9L49.6,9.9z M58.3,9.3l-1.3,4h-0.8l-0.5-1.7c-0.1-0.4-0.2-0.9-0.3-1.3h0c-0.1,0.4-0.2,0.9-0.3,1.3
			l-0.6,1.7h-0.8l-1.2-4h0.9l0.5,1.9c0.1,0.5,0.2,0.9,0.3,1.3h0c0.1-0.3,0.2-0.8,0.3-1.3L55,9.3h0.7l0.5,1.9
			c0.1,0.5,0.2,0.9,0.3,1.3h0c0.1-0.4,0.2-0.9,0.3-1.3l0.5-1.9L58.3,9.3L58.3,9.3z M62.9,13.4H62v-2.3c0-0.7-0.3-1.1-0.8-1.1
			c-0.5,0-0.9,0.5-0.9,1v2.4h-0.9v-2.9c0-0.4,0-0.7,0-1.1h0.8l0,0.6h0c0.2-0.4,0.7-0.7,1.3-0.7c0.8,0,1.4,0.6,1.4,1.7L62.9,13.4
			L62.9,13.4z M65.4,13.4h-0.9V7.5h0.9V13.4z M68.7,13.4c-1.2,0-1.9-0.9-1.9-2.1c0-1.2,0.8-2.1,2-2.1c1.2,0,1.9,0.8,1.9,2.1
			C70.7,12.6,69.9,13.4,68.7,13.4z M68.7,9.9c-0.6,0-1.1,0.6-1.1,1.4c0,0.8,0.4,1.4,1.1,1.4c0.6,0,1.1-0.6,1.1-1.4
			C69.8,10.5,69.4,9.9,68.7,9.9L68.7,9.9z M74.3,13.4l-0.1-0.5h0c-0.3,0.4-0.7,0.6-1.2,0.6c-0.7,0-1.2-0.5-1.2-1.2
			c0-1,0.9-1.5,2.4-1.5v-0.1c0-0.5-0.3-0.8-0.8-0.8c-0.4,0-0.7,0.1-1.1,0.3L72,9.6c0.4-0.2,0.8-0.3,1.4-0.3c1.1,0,1.6,0.6,1.6,1.7
			v1.5c0,0.4,0,0.7,0.1,1L74.3,13.4L74.3,13.4z M74.1,11.4c-1,0-1.5,0.2-1.5,0.8c0,0.4,0.3,0.6,0.6,0.6c0.5,0,0.9-0.3,0.9-0.8V11.4z
			 M79.4,13.4l0-0.6h0c-0.3,0.5-0.7,0.7-1.3,0.7c-1,0-1.7-0.9-1.7-2c0-1.3,0.7-2.1,1.8-2.1c0.5,0,0.9,0.2,1.1,0.5h0V7.5h0.9v4.8
			c0,0.4,0,0.8,0,1.1L79.4,13.4L79.4,13.4z M79.2,11c0-0.6-0.4-1-0.9-1c-0.7,0-1.1,0.6-1.1,1.4c0,0.8,0.4,1.4,1.1,1.4
			c0.6,0,1-0.5,1-1.1L79.2,11L79.2,11z M85.8,13.4c-1.2,0-1.9-0.9-1.9-2.1c0-1.2,0.8-2.1,2-2.1c1.2,0,1.9,0.8,1.9,2.1
			C87.9,12.6,87.1,13.4,85.8,13.4L85.8,13.4z M85.9,9.9c-0.6,0-1.1,0.6-1.1,1.4c0,0.8,0.4,1.4,1.1,1.4c0.6,0,1.1-0.6,1.1-1.4
			C86.9,10.5,86.5,9.9,85.9,9.9L85.9,9.9z M92.7,13.4h-0.9v-2.3c0-0.7-0.3-1.1-0.8-1.1c-0.5,0-0.9,0.5-0.9,1v2.4h-0.9v-2.9
			c0-0.4,0-0.7,0-1.1h0.8l0,0.6h0c0.2-0.4,0.7-0.7,1.3-0.7c0.8,0,1.4,0.6,1.4,1.7V13.4z M98.7,10h-1V12c0,0.5,0.2,0.7,0.5,0.7
			c0.2,0,0.3,0,0.4,0l0,0.7c-0.2,0.1-0.4,0.1-0.7,0.1c-0.7,0-1.1-0.4-1.1-1.4v-2h-0.6V9.3h0.6V8.6l0.9-0.3v1h1L98.7,10L98.7,10z
			 M103.5,13.4h-0.9v-2.3c0-0.7-0.3-1.1-0.8-1.1c-0.5,0-0.9,0.3-0.9,0.9v2.4H100V7.5h0.9v2.4h0c0.3-0.4,0.7-0.7,1.2-0.7
			c0.9,0,1.4,0.7,1.4,1.7V13.4L103.5,13.4z M108.4,11.6h-2.7c0,0.8,0.5,1.2,1.3,1.2c0.4,0,0.8-0.1,1.1-0.2l0.1,0.6
			c-0.4,0.2-0.8,0.2-1.4,0.2c-1.3,0-2-0.8-2-2c0-1.2,0.8-2.2,1.9-2.2c1,0,1.7,0.8,1.7,1.9C108.4,11.3,108.4,11.4,108.4,11.6
			L108.4,11.6z M107.6,10.9c0-0.6-0.3-1.1-0.9-1.1c-0.5,0-0.9,0.4-1,1.1H107.6L107.6,10.9z"/>
	</g>
</g>
</svg>
