<?xml version="1.0" encoding="utf-8"?>
<!-- Generator: Adobe Illustrator 22.0.0, SVG Export Plug-In . SVG Version: 6.00 Build 0)  -->
<svg version="1.1" id="Layer_1" xmlns="http://www.w3.org/2000/svg" xmlns:xlink="http://www.w3.org/1999/xlink" x="0px" y="0px"
	 viewBox="0 0 500 150" style="enable-background:new 0 0 500 150;" xml:space="preserve">
<style type="text/css">
	.st0{fill:#A6A6A6;}
	.st1{fill:#FFFFFF;}
	.st2{fill:#00C1FF;}
	.st3{fill:url(#SVGID_1_);}
	.st4{fill:url(#SVGID_2_);}
	.st5{fill:url(#SVGID_3_);}
	.st6{fill:url(#SVGID_4_);}
	.st7{fill:url(#SVGID_5_);}
	.st8{fill:url(#SVGID_6_);}
	.st9{fill:url(#SVGID_7_);}
	.st10{fill:url(#SVGID_8_);}
	.st11{fill:url(#SVGID_9_);}
	.st12{fill:url(#SVGID_10_);}
</style>
<g>
	<path d="M466.5,146H32.8c-9.5,0-17.3-7.8-17.3-17.4V24.4C15.5,14.8,23.3,7,32.8,7h433.7c9.5,0,17.3,7.8,17.3,17.4v104.2
		C483.8,138.2,476,146,466.5,146"/>
	<path class="st0" d="M466.5,7H32.8c-9.5,0-17.3,7.8-17.3,17.4v104.2c0,9.6,7.8,17.4,17.3,17.4h433.7c9.5,0,17.3-7.8,17.3-17.4V24.4
		C483.8,14.8,476,7,466.5,7 M466.5,9.8c8,0,14.6,6.5,14.6,14.6v104.2c0,8-6.5,14.6-14.6,14.6H32.8c-8,0-14.6-6.5-14.6-14.6V24.4
		c0-8,6.5-14.6,14.6-14.6L466.5,9.8"/>
	<path class="st1" d="M180,42.6c0,2.9-0.9,5.2-2.6,7c-2,2.1-4.5,3.1-7.6,3.1c-3,0-5.6-1-7.7-3.1c-2.1-2.1-3.2-4.7-3.2-7.8
		c0-3.1,1.1-5.7,3.2-7.8c2.1-2.1,4.7-3.1,7.7-3.1c1.5,0,2.9,0.3,4.3,0.9c1.4,0.6,2.4,1.4,3.3,2.3l-1.8,1.8c-1.4-1.6-3.3-2.5-5.7-2.5
		c-2.2,0-4.1,0.8-5.7,2.3c-1.6,1.5-2.4,3.5-2.4,6c0,2.5,0.8,4.5,2.4,6c1.6,1.5,3.5,2.3,5.7,2.3c2.3,0,4.3-0.8,5.8-2.3
		c1-1,1.6-2.4,1.7-4.2h-7.6V41h10.1C179.9,41.6,180,42.1,180,42.6"/>
	<path class="st1" d="M180,42.6h-0.3c0,2.8-0.8,5.1-2.5,6.7l0,0l0,0c-1.9,2-4.3,3-7.4,3c-2.9,0-5.4-1-7.4-3c-2-2-3-4.5-3.1-7.5
		c0-3,1-5.5,3.1-7.5c2-2,4.5-3,7.4-3c1.4,0,2.8,0.3,4.1,0.8c1.3,0.6,2.4,1.3,3.1,2.2l0.3-0.2l-0.2-0.2l-1.8,1.8l0.2,0.2l0.3-0.2
		c-1.4-1.7-3.5-2.6-6-2.6c-2.3,0-4.3,0.8-5.9,2.4c-1.7,1.6-2.5,3.7-2.5,6.3c0,2.5,0.8,4.7,2.5,6.3c1.7,1.6,3.7,2.4,5.9,2.4
		c2.4,0,4.4-0.8,6.1-2.4c1.1-1.1,1.7-2.6,1.8-4.4l0-0.4h-7.6v-1.8h9.7V41l-0.3,0.1c0.1,0.5,0.1,1,0.1,1.5h0.7c0-0.5,0-1.1-0.2-1.6
		l-0.1-0.3h-10.7v3.2h7.9v-0.3l-0.3,0c-0.2,1.7-0.7,3.1-1.6,4c-1.5,1.5-3.3,2.2-5.6,2.2c-2.1,0-3.9-0.7-5.4-2.2
		c-1.5-1.5-2.3-3.4-2.3-5.8c0-2.4,0.8-4.3,2.3-5.8c1.5-1.5,3.3-2.2,5.4-2.2c2.3,0,4.1,0.8,5.4,2.3l0.2,0.3l2.1-2.1l0.2-0.2l-0.2-0.2
		c-0.9-1-2-1.8-3.4-2.4c-1.4-0.6-2.9-0.9-4.4-0.9c-3.1,0-5.7,1.1-7.9,3.2c-2.2,2.1-3.3,4.8-3.3,8c0,3.2,1.1,5.9,3.3,8
		c2.2,2.1,4.8,3.2,7.9,3.2c3.2,0,5.9-1.1,7.9-3.2l-0.3-0.2l0.2,0.2c1.8-1.8,2.7-4.2,2.7-7.2L180,42.6 M196,33.9h-9.5v6.6h8.5V43
		h-8.5v6.6h9.5v2.6h-12.2V31.3H196V33.9"/>
	<path class="st1" d="M196,33.9v-0.3h-9.8v7.3h8.5v1.8l-8.5,0V50h9.5v1.9h-11.5V31.7h11.5v2.2H196v-0.3V33.9h0.3V31h-12.8v21.5h12.8
		v-3.3h-9.5v-5.9h8.5v-3.2h-8.5v-5.9h9.5v-0.3L196,33.9 M207.2,52.2h-2.7V33.9h-5.8v-2.6h14.3v2.6h-5.8V52.2"/>
	<path class="st1" d="M207.2,52.2v-0.3h-2.3V33.5h-5.8v-1.9h13.6v1.9h-5.8v18.6L207.2,52.2l0-0.3L207.2,52.2l0.3,0V34.2h5.8V31h-15
		v3.3h5.8v18.3h3.4v-0.3L207.2,52.2 M223.4,52.2V31.3h2.7v20.8L223.4,52.2"/>
	<path class="st1" d="M223.4,52.2h0.3V31.7h2v20.2h-2.3V52.2l0.3,0L223.4,52.2v0.3h3V31h-3.4v21.5h0.3V52.2 M237.9,52.2h-2.7V33.9
		h-5.8v-2.6h14.3v2.6h-5.8V52.2"/>
	<path class="st1" d="M237.9,52.2v-0.3h-2.3V33.5h-5.8v-1.9h13.6v1.9h-5.8v18.6L237.9,52.2l0-0.3L237.9,52.2l0.3,0V34.2h5.8V31h-15
		v3.3h5.8v18.3h3.4v-0.3L237.9,52.2 M257.6,47.7c1.5,1.6,3.4,2.3,5.7,2.3s4.1-0.8,5.7-2.3c1.5-1.6,2.3-3.6,2.3-6
		c0-2.4-0.8-4.4-2.3-6c-1.5-1.6-3.4-2.3-5.7-2.3s-4.1,0.8-5.7,2.3c-1.5,1.6-2.3,3.6-2.3,6S256,46.2,257.6,47.7z M270.8,49.5
		c-2,2.1-4.6,3.2-7.6,3.2c-3,0-5.6-1.1-7.6-3.2c-2-2.1-3.1-4.7-3.1-7.7c0-3,1-5.6,3.1-7.7c2-2.1,4.6-3.2,7.6-3.2
		c3,0,5.6,1.1,7.6,3.2c2.1,2.1,3.1,4.7,3.1,7.7C273.9,44.8,272.9,47.4,270.8,49.5z"/>
	<path class="st1" d="M257.6,47.7l-0.2,0.2c1.6,1.6,3.6,2.5,5.9,2.4c2.3,0,4.3-0.8,5.9-2.4c1.6-1.6,2.4-3.7,2.4-6.2
		c0-2.5-0.8-4.6-2.4-6.2c-1.6-1.6-3.6-2.5-5.9-2.4c-2.3,0-4.3,0.8-5.9,2.4c-1.6,1.6-2.4,3.7-2.4,6.2c0,2.5,0.8,4.6,2.4,6.2
		L257.6,47.7l0.2-0.2c-1.5-1.5-2.2-3.4-2.2-5.7c0-2.4,0.7-4.2,2.2-5.7c1.5-1.5,3.3-2.2,5.4-2.2c2.1,0,3.9,0.7,5.4,2.2
		c1.5,1.5,2.2,3.4,2.2,5.7c0,2.4-0.7,4.2-2.2,5.7c-1.5,1.5-3.3,2.2-5.4,2.2c-2.1,0-3.9-0.7-5.4-2.2L257.6,47.7z M270.8,49.5
		l-0.2-0.2c-2,2-4.4,3.1-7.4,3.1c-3,0-5.4-1-7.4-3.1l0,0l0,0c-2-2-3-4.5-3-7.5c0-3,1-5.4,3-7.5c2-2,4.4-3.1,7.4-3.1
		c2.9,0,5.4,1,7.4,3.1c2,2.1,3,4.5,3,7.5c0,3-1,5.4-3,7.5L270.8,49.5l0.2,0.2c2.1-2.2,3.2-4.8,3.2-8c0-3.1-1.1-5.8-3.2-8
		c-2.1-2.2-4.8-3.3-7.9-3.3c-3.1,0-5.8,1.1-7.9,3.3v0c-2.1,2.2-3.2,4.8-3.2,8c0,3.1,1.1,5.8,3.2,8l0,0l0,0c2.1,2.2,4.8,3.3,7.9,3.3
		c3.1,0,5.8-1.1,7.9-3.3L270.8,49.5z M277.7,52.2V31.3h3.3L291,47.5h0.1l-0.1-4V31.3h2.7v20.8h-2.8l-10.6-17h-0.1l0.1,4v13
		L277.7,52.2"/>
	<path class="st1" d="M277.7,52.2h0.3V31.7h2.7l10.1,16.2h0.7l-0.1-4.4V31.7h2v20.2h-2.3l-10.6-17h-0.7l0.1,4.4v12.6h-2.3
		L277.7,52.2l0.3,0L277.7,52.2l0,0.3h3V39.2l-0.1-4l-0.3,0v0.3h0.1v-0.3l-0.3,0.2l10.7,17.2h3.3V31h-3.4v12.6l0.1,4l0.3,0v-0.3H291
		v0.3l0.3-0.2L281.1,31h-3.8v21.5h0.3L277.7,52.2 M386.5,111.2h6.5V67.8h-6.5L386.5,111.2z M444.8,83.5l-7.4,18.8h-0.2l-7.7-18.8h-7
		l11.5,26.3l-6.6,14.6h6.8l17.8-41L444.8,83.5z M408.1,106.3c-2.1,0-5.1-1.1-5.1-3.7c0-3.4,3.7-4.6,6.9-4.6c2.8,0,4.2,0.6,5.9,1.5
		C415.3,103.5,411.8,106.3,408.1,106.3L408.1,106.3z M408.8,82.5c-4.7,0-9.5,2.1-11.5,6.7l5.7,2.4c1.2-2.4,3.5-3.2,5.9-3.2
		c3.3,0,6.8,2,6.8,5.6v0.4c-1.2-0.7-3.7-1.7-6.8-1.7c-6.2,0-12.5,3.4-12.5,9.8c0,5.8,5.1,9.6,10.8,9.6c4.4,0,6.8-2,8.3-4.2h0.2v3.4
		h6.2V94.5C422,86.8,416.3,82.5,408.8,82.5L408.8,82.5z M368.8,88.7h-9.2V73.9h9.2c4.8,0,7.6,4,7.6,7.4
		C376.4,84.7,373.7,88.7,368.8,88.7z M368.7,67.8h-15.5v43.4h6.5V94.8h9c7.2,0,14.2-5.2,14.2-13.5C382.9,73,375.8,67.8,368.7,67.8
		L368.7,67.8z M284.1,106.3c-4.5,0-8.2-3.8-8.2-8.9c0-5.2,3.7-9,8.2-9c4.4,0,7.9,3.8,7.9,9C292,102.6,288.5,106.3,284.1,106.3
		L284.1,106.3z M291.5,85.9h-0.2c-1.5-1.7-4.2-3.3-7.8-3.3c-7.4,0-14.1,6.5-14.1,14.8c0,8.3,6.8,14.7,14.1,14.7
		c3.5,0,6.3-1.6,7.8-3.4h0.2v2.1c0,5.7-3,8.7-7.9,8.7c-4,0-6.4-2.9-7.4-5.3l-5.6,2.4c1.6,3.9,5.9,8.7,13.1,8.7c7.6,0,14-4.5,14-15.4
		V83.5h-6.1L291.5,85.9z M302.1,111.2h6.5V67.8h-6.5V111.2z M318.2,96.9c-0.2-5.7,4.4-8.6,7.7-8.6c2.6,0,4.8,1.3,5.5,3.1L318.2,96.9
		z M338.3,92c-1.2-3.3-5-9.4-12.6-9.4c-7.6,0-13.9,6-13.9,14.8c0,8.3,6.3,14.8,14.6,14.8c6.8,0,10.7-4.1,12.3-6.5l-5-3.4
		c-1.7,2.5-4,4.1-7.3,4.1c-3.3,0-5.6-1.5-7.2-4.5l19.7-8.2L338.3,92z M181.1,87.1v6.3h15c-0.4,3.5-1.6,6.1-3.4,7.9
		c-2.2,2.2-5.6,4.6-11.6,4.6c-9.2,0-16.4-7.4-16.4-16.7c0-9.2,7.2-16.7,16.4-16.7c5,0,8.6,2,11.3,4.5l4.4-4.4
		c-3.7-3.6-8.7-6.3-15.7-6.3c-12.6,0-23.3,10.3-23.3,23c0,12.7,10.6,23,23.3,23c6.8,0,12-2.2,16-6.4c4.1-4.1,5.4-10,5.4-14.7
		c0-1.5-0.1-2.8-0.3-3.9L181.1,87.1z M219.5,106.3c-4.5,0-8.3-3.7-8.3-9c0-5.3,3.9-9,8.3-9c4.5,0,8.3,3.6,8.3,9
		C227.9,102.6,224,106.3,219.5,106.3z M219.5,82.6c-8.2,0-14.8,6.2-14.8,14.8c0,8.5,6.7,14.8,14.8,14.8c8.2,0,14.8-6.3,14.8-14.8
		C234.4,88.8,227.7,82.6,219.5,82.6z M251.9,106.3c-4.5,0-8.3-3.7-8.3-9c0-5.3,3.9-9,8.3-9c4.5,0,8.3,3.6,8.3,9
		C260.2,102.6,256.3,106.3,251.9,106.3L251.9,106.3z M251.9,82.6c-8.2,0-14.8,6.2-14.8,14.8c0,8.5,6.7,14.8,14.8,14.8
		c8.2,0,14.8-6.3,14.8-14.8C266.7,88.8,260,82.6,251.9,82.6L251.9,82.6z"/>
	<path class="st2" d="M51.9,33.4c-1.2,1.1-1.9,2.8-1.9,5.1v-0.5v76.9v-0.5c0,2.2,0.6,3.8,1.6,4.9l0.3,0.2v0c0.8,0.7,1.9,1.1,3.1,1.1
		c1.2,0,2.5-0.4,3.9-1.2l50.4-28.7l17.3-9.8c2.2-1.3,3.4-2.9,3.6-4.5v0c-0.2-1.6-1.4-3.3-3.6-4.5l-17.3-9.8L58.9,33.5
		c-1.4-0.8-2.7-1.2-3.9-1.2C53.8,32.3,52.7,32.7,51.9,33.4L51.9,33.4z"/>
	
		<linearGradient id="SVGID_1_" gradientUnits="userSpaceOnUse" x1="1441.4911" y1="-378.7591" x2="1370.3909" y2="-242.0209" gradientTransform="matrix(0.2221 0 0 0.4265 -242.4559 199.0146)">
		<stop  offset="0" style="stop-color:#00A0FF"/>
		<stop  offset="6.569999e-03" style="stop-color:#00A1FF"/>
		<stop  offset="0.2601" style="stop-color:#00BEFF"/>
		<stop  offset="0.5122" style="stop-color:#00D2FF"/>
		<stop  offset="0.7604" style="stop-color:#00DFFF"/>
		<stop  offset="1" style="stop-color:#00E3FF"/>
	</linearGradient>
	<path class="st3" d="M51.9,119.6l-0.3-0.2c-1-1.1-1.6-2.7-1.6-4.9v0.5V38.1v0.5c0-2.3,0.7-4.1,1.9-5.1l43,43.1L51.9,119.6"/>
	
		<linearGradient id="SVGID_2_" gradientUnits="userSpaceOnUse" x1="841.9553" y1="-318.9553" x2="595.8646" y2="-318.9553" gradientTransform="matrix(0.3411 0 0 0.2777 -154.3697 165.0835)">
		<stop  offset="0" style="stop-color:#FFE000"/>
		<stop  offset="0.4087" style="stop-color:#FFBD00"/>
		<stop  offset="0.7754" style="stop-color:#FFA500"/>
		<stop  offset="1" style="stop-color:#FF9C00"/>
	</linearGradient>
	<path class="st4" d="M109.2,90.9L94.9,76.5l14.3-14.4l17.3,9.8c2.2,1.3,3.4,2.9,3.6,4.5v0c-0.2,1.6-1.4,3.3-3.6,4.5L109.2,90.9"/>
	
		<linearGradient id="SVGID_3_" gradientUnits="userSpaceOnUse" x1="960.6039" y1="-512.7297" x2="736.2958" y2="-340.7988" gradientTransform="matrix(0.3506 0 0 0.2702 -239.0115 224.8026)">
		<stop  offset="0" style="stop-color:#FF3A44"/>
		<stop  offset="1" style="stop-color:#C31162"/>
	</linearGradient>
	<path class="st5" d="M55,120.7c-1.2,0-2.2-0.4-3.1-1.1v0l43-43.1l14.3,14.4l-50.4,28.7C57.5,120.3,56.2,120.7,55,120.7"/>
	
		<linearGradient id="SVGID_4_" gradientUnits="userSpaceOnUse" x1="787.3215" y1="-396.1269" x2="887.3292" y2="-319.355" gradientTransform="matrix(0.3506 0 0 0.2702 -238.9435 137.9095)">
		<stop  offset="0" style="stop-color:#32A071"/>
		<stop  offset="6.850000e-02" style="stop-color:#2DA771"/>
		<stop  offset="0.4762" style="stop-color:#15CF74"/>
		<stop  offset="0.8009" style="stop-color:#06E775"/>
		<stop  offset="1" style="stop-color:#00F076"/>
	</linearGradient>
	<path class="st6" d="M94.9,76.5l-43-43.1c0.8-0.7,1.9-1.1,3.1-1.1c1.2,0,2.5,0.4,3.9,1.2l50.4,28.7L94.9,76.5"/>
	
		<linearGradient id="SVGID_5_" gradientUnits="userSpaceOnUse" x1="828.6204" y1="-61.3595" x2="828.6204" y2="-61.3595" gradientTransform="matrix(0.3506 0 0 0.2702 -238.9435 137.9095)">
		<stop  offset="0" style="stop-color:#32A071"/>
		<stop  offset="6.850000e-02" style="stop-color:#2DA771"/>
		<stop  offset="0.4762" style="stop-color:#15CF74"/>
		<stop  offset="0.8009" style="stop-color:#06E775"/>
		<stop  offset="1" style="stop-color:#00F076"/>
	</linearGradient>
	<path class="st7" d="M51.5,121.3"/>
	
		<linearGradient id="SVGID_6_" gradientUnits="userSpaceOnUse" x1="1670.8978" y1="-274.3106" x2="1632.4351" y2="-162.8941" gradientTransform="matrix(0.181 0 0 0.5234 -242.4148 185.0624)">
		<stop  offset="0" style="stop-color:#008DE0"/>
		<stop  offset="6.569999e-03" style="stop-color:#008DE0"/>
		<stop  offset="0.2601" style="stop-color:#00A7E0"/>
		<stop  offset="0.5122" style="stop-color:#00B8E0"/>
		<stop  offset="0.7604" style="stop-color:#00C4E0"/>
		<stop  offset="1" style="stop-color:#00C7E0"/>
	</linearGradient>
	<path class="st8" d="M51.7,119.8c-1-1.1-1.6-2.7-1.6-4.9v-0.5c0,2.2,0.6,3.8,1.6,4.9l0.3,0.2L51.7,119.8"/>
	
		<linearGradient id="SVGID_7_" gradientUnits="userSpaceOnUse" x1="704.462" y1="-328.7737" x2="476.1145" y2="-328.7737" gradientTransform="matrix(0.3676 0 0 0.2577 -126.14 168.5685)">
		<stop  offset="0" style="stop-color:#E0C500"/>
		<stop  offset="0.4087" style="stop-color:#E0A600"/>
		<stop  offset="0.7754" style="stop-color:#E09100"/>
		<stop  offset="1" style="stop-color:#E08900"/>
	</linearGradient>
	<path class="st9" d="M109.6,91.2l-0.3-0.3l17.3-9.8c2.2-1.2,3.4-2.9,3.6-4.5c0,0.6-0.1,1.2-0.4,1.8c-0.5,1.2-1.6,2.3-3.2,3.2
		L109.6,91.2"/>
	
		<linearGradient id="SVGID_8_" gradientUnits="userSpaceOnUse" x1="704.4738" y1="-274.1191" x2="476.1232" y2="-274.1191" gradientTransform="matrix(0.3676 0 0 0.2577 -126.14 139.8039)">
		<stop  offset="0" style="stop-color:#FFE840"/>
		<stop  offset="0.4087" style="stop-color:#FFCE40"/>
		<stop  offset="0.7754" style="stop-color:#FFBC40"/>
		<stop  offset="1" style="stop-color:#FFB540"/>
	</linearGradient>
	<path class="st10" d="M130.2,76.5c-0.2-1.6-1.4-3.3-3.6-4.5l-17.3-9.8l0.3-0.3h0l17,9.7C129,72.9,130.2,74.7,130.2,76.5"/>
	
		<linearGradient id="SVGID_9_" gradientUnits="userSpaceOnUse" x1="1625.186" y1="15.2883" x2="1586.9388" y2="121.5715" gradientTransform="matrix(0.1807 0 0 0.5242 -242.4146 24.6947)">
		<stop  offset="0" style="stop-color:#40B8FF"/>
		<stop  offset="6.569999e-03" style="stop-color:#40B9FF"/>
		<stop  offset="0.2601" style="stop-color:#40CEFF"/>
		<stop  offset="0.5122" style="stop-color:#40DDFF"/>
		<stop  offset="0.7604" style="stop-color:#40E7FF"/>
		<stop  offset="1" style="stop-color:#40EAFF"/>
	</linearGradient>
	<path class="st11" d="M50.1,38.6v-0.5c0-0.2,0-0.4,0-0.6v0c0,0,0,0,0,0v0c0.1-1.9,0.7-3.3,1.6-4.3l0.3,0.3
		C50.8,34.5,50.1,36.3,50.1,38.6"/>
	
		<linearGradient id="SVGID_10_" gradientUnits="userSpaceOnUse" x1="1626.3799" y1="71.6536" x2="1626.3799" y2="71.6536" gradientTransform="matrix(0.1807 0 0 0.5242 -242.4146 24.6947)">
		<stop  offset="0" style="stop-color:#40B8FF"/>
		<stop  offset="6.569999e-03" style="stop-color:#40B9FF"/>
		<stop  offset="0.2601" style="stop-color:#40CEFF"/>
		<stop  offset="0.5122" style="stop-color:#40DDFF"/>
		<stop  offset="0.7604" style="stop-color:#40E7FF"/>
		<stop  offset="1" style="stop-color:#40EAFF"/>
	</linearGradient>
	<path class="st12" d="M51.5,62.3"/>
</g>
</svg>
